# xmcd
#
# Track frame offsets:
#	150
#	16382
#	28582
#	37974
#	48710
#	59398
#	73614
#	89558
#	99526
#	114318
#	134198
#	145846
#	155766
#
# Disc length: 2288 seconds
#
# Revision: 1
# Processed by: cddbd v1.5.2PL0 Copyright (c) Steve Scherf et al.
# Submitted via: audiograbber 1.83.01
#
DISCID=bc08ee0d
DTITLE=Ben Coulter - Return to my roots - The Gospel Album
DYEAR=2009
DGENRE=Gospel
TTITLE0=By His Blood
TTITLE1=All I know
TTITLE2=Will the Circle be unbroken
TTITLE3=Why me, Lord
TTITLE4=Thank you Jesus
TTITLE5=You Don't have to remind me
TTITLE6=Amazing Grace
TTITLE7=Swing Low, Sweet Chariot
TTITLE8=I got the Lord on my side
TTITLE9=Farther Along
TTITLE10=Amazing Grace - Blues
TTITLE11=Without Him
TTITLE12=Victory In Jesus - Accapella
EXTD=
EXTT0=
EXTT1=
EXTT2=
EXTT3=
EXTT4=
EXTT5=
EXTT6=
EXTT7=
EXTT8=
EXTT9=
EXTT10=
EXTT11=
EXTT12=
PLAYORDER=
